<svg width="85" height="74" viewBox="0 0 85 74" fill="none" xmlns="http://www.w3.org/2000/svg">
  <path
    d="M43.6932 27.131C43.5824 27.0203 43.2281 26.0976 43.1174 25.8687C31.4541 1.90736 5.38891 2.71197 1.27724 13.4894C-1.92647 21.7423 11.9071 41.3484 43.6932 27.131Z"
    fill="url(#paint0_linear_83_7529)"
  />
  <path
    d="M48.9564 24.946C66.8942 16.9294 64.3844 3.05892 59.6969 1.22084C53.5184 -1.18563 42.0913 8.1007 48.6095 24.2595C48.7276 24.3776 48.9564 24.8353 48.9564 24.946Z"
    fill="url(#paint1_linear_83_7529)"
  />
  <path
    d="M31.8084 46.5452C28.494 51.7051 25.9768 56.9757 24.2568 60.7626C24.1461 60.9914 24.1461 61.1095 24.0354 61.3384C23.4596 62.8295 22.8838 63.9737 22.5443 65.0071C22.0866 66.1513 22.655 67.5317 23.9173 67.982C24.8252 68.3289 26.0875 68.7866 27.5787 69.3624C27.8001 69.4731 27.9182 69.4731 28.1471 69.5839C32.148 70.9569 37.6401 72.448 43.5824 73.4815C40.0392 70.0489 37.175 65.9077 35.1155 61.331C33.056 56.6362 31.9118 51.5944 31.8011 46.5452H31.8084Z"
    fill="url(#paint2_linear_83_7529)"
  />
  <path
    d="M81.99 40.2411C79.2514 34.1659 74.3277 29.6999 68.5034 27.633C67.9351 27.4115 67.3593 27.2934 66.6728 27.2934C63.6979 27.2934 60.7304 29.818 60.5016 32.911C60.0439 38.1816 61.0773 43.4522 63.3583 48.6121C65.6393 53.6613 68.843 57.8984 72.8513 61.1021C73.8848 61.9068 75.2504 62.2463 76.5053 62.2463C78.9118 62.2463 81.1928 60.9914 82.1081 58.8064C84.618 53.1815 84.7361 46.4197 81.99 40.2264V40.2411Z"
    fill="url(#paint3_linear_83_7529)"
  />
  <path
    d="M56.604 51.8232C53.7472 45.401 52.603 38.8681 53.1788 32.4459C53.2895 30.6152 53.8653 28.8953 54.6625 27.4042C54.5518 27.4042 54.323 27.5149 54.2049 27.5149C53.976 27.633 53.6365 27.633 53.4076 27.7437C51.6877 28.2014 49.9825 29.006 48.4913 29.8106C47.6941 30.2757 47.0076 30.7334 46.2104 31.191C42.3275 33.8263 39.1238 38.4104 38.6661 43.2308C38.2011 48.3907 39.1238 53.6613 41.2941 58.7031C43.4717 63.6341 46.668 67.6498 50.5583 70.7428C52.9573 72.6916 57.1871 73.8432 60.7378 73.8432C64.6206 73.8432 68.7323 72.352 72.0541 70.2851C72.0541 70.2851 72.1722 70.2851 72.1722 70.1744C72.3937 70.0563 72.6299 69.8275 72.8587 69.7094C72.9695 69.5986 73.0802 69.4879 73.1983 69.4879C71.3676 69.0228 69.7731 68.2256 68.4001 67.1848C63.3731 63.2872 59.3721 58.1273 56.6187 51.8232H56.604Z"
    fill="url(#paint4_linear_83_7529)"
  />
  <defs>
    <linearGradient
      id="paint0_linear_83_7529"
      x1="5.62435"
      y1="8.22619"
      x2="90.1462"
      y2="73.9244"
      gradientUnits="userSpaceOnUse"
    >
      <stop stop-color="#5B68DF" />
      <stop offset="1" stop-color="#FCB336" />
    </linearGradient>
    <linearGradient
      id="paint1_linear_83_7529"
      x1="5.62435"
      y1="8.22619"
      x2="90.1462"
      y2="73.9244"
      gradientUnits="userSpaceOnUse"
    >
      <stop stop-color="#5B68DF" />
      <stop offset="1" stop-color="#FCB336" />
    </linearGradient>
    <linearGradient
      id="paint2_linear_83_7529"
      x1="5.62435"
      y1="8.22619"
      x2="90.1462"
      y2="73.9244"
      gradientUnits="userSpaceOnUse"
    >
      <stop stop-color="#5B68DF" />
      <stop offset="1" stop-color="#FCB336" />
    </linearGradient>
    <linearGradient
      id="paint3_linear_83_7529"
      x1="5.62435"
      y1="8.22619"
      x2="90.1462"
      y2="73.9244"
      gradientUnits="userSpaceOnUse"
    >
      <stop stop-color="#5B68DF" />
      <stop offset="1" stop-color="#FCB336" />
    </linearGradient>
    <linearGradient
      id="paint4_linear_83_7529"
      x1="5.62435"
      y1="8.22619"
      x2="90.1462"
      y2="73.9244"
      gradientUnits="userSpaceOnUse"
    >
      <stop stop-color="#5B68DF" />
      <stop offset="1" stop-color="#FCB336" />
    </linearGradient>
  </defs>
</svg>
